<svg width="110" height="110" viewBox="0 0 110 110" fill="none" xmlns="http://www.w3.org/2000/svg">
<g filter="url(#filter0_d_488_12503)">
<rect width="110" height="110" transform="translate(4)" fill="#1F1E1E"/>
<path d="M67 51L61 45.74C60.45 45.2481 59.7379 44.9761 59 44.9761C58.2621 44.9761 57.55 45.2481 57 45.74L51 51C50.6824 51.2841 50.4289 51.6326 50.2565 52.0223C50.084 52.4119 49.9966 52.8339 50 53.26V62C50 62.7957 50.3161 63.5587 50.8787 64.1213C51.4413 64.6839 52.2044 65 53 65H65C65.7957 65 66.5587 64.6839 67.1213 64.1213C67.6839 63.5587 68 62.7957 68 62V53.25C68.002 52.8256 67.9139 52.4055 67.7415 52.0177C67.5691 51.6298 67.3164 51.283 67 51ZM61 63H57V58C57 57.7348 57.1054 57.4804 57.2929 57.2929C57.4804 57.1054 57.7348 57 58 57H60C60.2652 57 60.5196 57.1054 60.7071 57.2929C60.8946 57.4804 61 57.7348 61 58V63ZM66 62C66 62.2652 65.8946 62.5196 65.7071 62.7071C65.5196 62.8946 65.2652 63 65 63H63V58C63 57.2044 62.6839 56.4413 62.1213 55.8787C61.5587 55.3161 60.7957 55 60 55H58C57.2044 55 56.4413 55.3161 55.8787 55.8787C55.3161 56.4413 55 57.2044 55 58V63H53C52.7348 63 52.4804 62.8946 52.2929 62.7071C52.1054 62.5196 52 62.2652 52 62V53.25C52.0002 53.108 52.0306 52.9677 52.0892 52.8384C52.1478 52.7091 52.2333 52.5937 52.34 52.5L58.34 47.25C58.5225 47.0897 58.7571 47.0013 59 47.0013C59.2429 47.0013 59.4775 47.0897 59.66 47.25L65.66 52.5C65.7667 52.5937 65.8522 52.7091 65.9108 52.8384C65.9694 52.9677 65.9998 53.108 66 53.25V62Z" fill="#BC3324"/>
<path d="M66 62C66 62.2652 65.8946 62.5196 65.7071 62.7071C65.5196 62.8946 65.2652 63 65 63H63V58C63 57.2044 62.6839 56.4413 62.1213 55.8787C61.5587 55.3161 60.7957 55 60 55H58C57.2044 55 56.4413 55.3161 55.8787 55.8787C55.3161 56.4413 55 57.2044 55 58V63H53C52.7348 63 52.4804 62.8946 52.2929 62.7071C52.1054 62.5196 52 62.2652 52 62V53.25C52.0002 53.108 52.0306 52.9677 52.0892 52.8384C52.1478 52.7091 52.2333 52.5937 52.34 52.5L58.34 47.25C58.5225 47.0897 58.7571 47.0013 59 47.0013C59.2429 47.0013 59.4775 47.0897 59.66 47.25L65.66 52.5C65.7667 52.5937 65.8522 52.7091 65.9108 52.8384C65.9694 52.9677 65.9998 53.108 66 53.25V62Z" fill="#BC3324"/>
</g>
<defs>
<filter id="filter0_d_488_12503" x="0" y="0" width="118" height="118" filterUnits="userSpaceOnUse" color-interpolation-filters="sRGB">
<feFlood flood-opacity="0" result="BackgroundImageFix"/>
<feColorMatrix in="SourceAlpha" type="matrix" values="0 0 0 0 0 0 0 0 0 0 0 0 0 0 0 0 0 0 127 0" result="hardAlpha"/>
<feOffset dy="4"/>
<feGaussianBlur stdDeviation="2"/>
<feComposite in2="hardAlpha" operator="out"/>
<feColorMatrix type="matrix" values="0 0 0 0 0 0 0 0 0 0 0 0 0 0 0 0 0 0 0.25 0"/>
<feBlend mode="normal" in2="BackgroundImageFix" result="effect1_dropShadow_488_12503"/>
<feBlend mode="normal" in="SourceGraphic" in2="effect1_dropShadow_488_12503" result="shape"/>
</filter>
</defs>
</svg>
