<svg viewBox="0 0 202 147" fill="none" xmlns="http://www.w3.org/2000/svg">
<rect width="147" height="147" fill="#1F1E1E"/>
<path d="M39.9651 72.439H26.6331V50.032H26.6001V49.999H21.9141V73H39.9651V72.439Z" fill="white"/>
<path d="M43.9312 73H62.0482V72.439H48.6173V61.285H59.1112V60.691H48.6173V50.56H62.0482V49.999H43.9312V73Z" fill="white"/>
<path d="M70.6989 73V50.56C73.5699 50.56 82.4139 51.649 83.0739 64.453V73H87.7599V49.999H83.0739V60.328C81.6549 54.19 77.1669 49.999 70.6989 49.999H66.0129V73H70.6989Z" fill="white"/>
<path d="M97.3889 73V50.56C100.26 50.56 109.104 51.649 109.764 64.453V73H114.45V49.999H109.764V60.328C108.345 54.19 103.857 49.999 97.3889 49.999H92.7029V73H97.3889Z" fill="white"/>
<path d="M119.393 73H124.079V49.999H119.393V73Z" fill="white"/>
<rect x="81" y="92" width="121" height="42" fill="#BC3324"/>
<path d="M108.923 124H109.463L112.403 115.45H120.953L124.283 124H128.753L120.653 103.09H116.123L108.923 124ZM116.423 103.75L120.773 114.94H112.583L116.423 103.75Z" fill="white"/>
<path d="M132.644 103.09V124H136.904V116.77H141.974L146.864 123.97H151.724L146.564 116.32C149.564 115.54 151.844 113.68 151.844 109.51C151.844 104.29 148.034 102.64 143.594 102.64C138.914 102.64 137.564 106.15 136.904 110.05V103.09H132.644ZM138.074 107.47C138.884 104.53 140.984 103.33 142.844 103.18C147.314 102.76 147.494 105.61 147.494 109.51C147.494 115.84 144.134 116.26 141.254 116.26H136.904C136.904 116.26 136.784 112.12 138.074 107.47Z" fill="white"/>
<path d="M162.084 103.6L162.114 124H166.374V103.6H174.984V103.09H153.474V103.6H162.084Z" fill="white"/>
</svg>
